<svg xmlns="http://www.w3.org/2000/svg" width="760" height="190" viewBox="0 0 760 190" role="img"><title>Deinde</title><g transform="translate(0 0) scale(0.3392857142857143) translate(-236 -232)"><path d="M336 272 H492 C647 272 752 369 752 512 C752 655 647 752 492 752 H448 V632 H492 C576 632 632 586 632 512 C632 438 576 392 492 392 H336 C305 392 280 367 280 336 V328 C280 297 305 272 336 272 Z" fill="#F5F7F1"/><path d="M336 464 C367 464 392 489 392 520 V696 C392 727 367 752 336 752 C305 752 280 727 280 696 V520 C280 489 305 464 336 464 Z" fill="#D5EB8B"/></g><g transform="translate(220 5) scale(1.390671801454857)"><path d="M67.200 100.000 L53.520 100.000 L53.520 91.360 L53.280 91.360 Q50.280 96.400 44.940 99.040 Q39.600 101.680 33.480 101.680 Q26.880 101.680 21.660 99.220 Q16.440 96.760 12.780 92.620 Q9.120 88.480 7.140 82.900 Q5.160 77.320 5.160 70.960 Q5.160 64.600 7.200 59.080 Q9.240 53.560 12.960 49.480 Q16.680 45.400 21.840 43.060 Q27.000 40.720 33.120 40.720 Q37.080 40.720 40.200 41.620 Q43.320 42.520 45.660 43.840 Q48.000 45.160 49.680 46.720 Q51.360 48.280 52.440 49.720 L52.800 49.720 L52.800 9.280 L67.200 9.280 Z M19.800 70.960 Q19.800 74.320 20.820 77.680 Q21.840 81.040 23.880 83.680 Q25.920 86.320 29.040 88.000 Q32.160 89.680 36.360 89.680 Q40.320 89.680 43.440 88.060 Q46.560 86.440 48.780 83.800 Q51.000 81.160 52.140 77.860 Q53.280 74.560 53.280 71.200 Q53.280 67.840 52.140 64.480 Q51.000 61.120 48.780 58.480 Q46.560 55.840 43.440 54.160 Q40.320 52.480 36.360 52.480 Q32.160 52.480 29.040 54.100 Q25.920 55.720 23.880 58.360 Q21.840 61.000 20.820 64.300 Q19.800 67.600 19.800 70.960 Z M122.280 65.440 Q122.280 62.680 121.500 60.160 Q120.720 57.640 119.040 55.720 Q117.360 53.800 114.780 52.660 Q112.200 51.520 108.720 51.520 Q102.240 51.520 97.740 55.420 Q93.240 59.320 92.760 65.440 Z M136.680 71.920 Q136.680 72.880 136.680 73.840 Q136.680 74.800 136.560 75.760 L92.760 75.760 Q93.000 78.880 94.380 81.460 Q95.760 84.040 98.040 85.900 Q100.320 87.760 103.200 88.840 Q106.080 89.920 109.200 89.920 Q114.600 89.920 118.320 87.940 Q122.040 85.960 124.440 82.480 L134.040 90.160 Q125.520 101.680 109.320 101.680 Q102.600 101.680 96.960 99.580 Q91.320 97.480 87.180 93.640 Q83.040 89.800 80.700 84.220 Q78.360 78.640 78.360 71.560 Q78.360 64.600 80.700 58.900 Q83.040 53.200 87.120 49.180 Q91.200 45.160 96.780 42.940 Q102.360 40.720 108.840 40.720 Q114.840 40.720 119.940 42.700 Q125.040 44.680 128.760 48.580 Q132.480 52.480 134.580 58.300 Q136.680 64.120 136.680 71.920 Z M147.840 42.400 L162.240 42.400 L162.240 100.000 L147.840 100.000 Z M145.800 22.840 Q145.800 19.360 148.380 16.780 Q150.960 14.200 154.920 14.200 Q158.880 14.200 161.580 16.660 Q164.280 19.120 164.280 22.840 Q164.280 26.560 161.580 29.020 Q158.880 31.480 154.920 31.480 Q150.960 31.480 148.380 28.900 Q145.800 26.320 145.800 22.840 Z M176.760 42.400 L190.440 42.400 L190.440 51.640 L190.680 51.640 Q192.600 47.320 197.340 44.020 Q202.080 40.720 208.560 40.720 Q214.200 40.720 218.220 42.700 Q222.240 44.680 224.820 47.920 Q227.400 51.160 228.600 55.360 Q229.800 59.560 229.800 64.000 L229.800 100.000 L215.400 100.000 L215.400 68.080 Q215.400 65.560 215.040 62.800 Q214.680 60.040 213.480 57.820 Q212.280 55.600 210.180 54.160 Q208.080 52.720 204.600 52.720 Q201.120 52.720 198.600 54.100 Q196.080 55.480 194.460 57.640 Q192.840 59.800 192.000 62.620 Q191.160 65.440 191.160 68.320 L191.160 100.000 L176.760 100.000 Z M302.160 100.000 L288.480 100.000 L288.480 91.360 L288.240 91.360 Q285.240 96.400 279.900 99.040 Q274.560 101.680 268.440 101.680 Q261.840 101.680 256.620 99.220 Q251.400 96.760 247.740 92.620 Q244.080 88.480 242.100 82.900 Q240.120 77.320 240.120 70.960 Q240.120 64.600 242.160 59.080 Q244.200 53.560 247.920 49.480 Q251.640 45.400 256.800 43.060 Q261.960 40.720 268.080 40.720 Q272.040 40.720 275.160 41.620 Q278.280 42.520 280.620 43.840 Q282.960 45.160 284.640 46.720 Q286.320 48.280 287.400 49.720 L287.760 49.720 L287.760 9.280 L302.160 9.280 Z M254.760 70.960 Q254.760 74.320 255.780 77.680 Q256.800 81.040 258.840 83.680 Q260.880 86.320 264.000 88.000 Q267.120 89.680 271.320 89.680 Q275.280 89.680 278.400 88.060 Q281.520 86.440 283.740 83.800 Q285.960 81.160 287.100 77.860 Q288.240 74.560 288.240 71.200 Q288.240 67.840 287.100 64.480 Q285.960 61.120 283.740 58.480 Q281.520 55.840 278.400 54.160 Q275.280 52.480 271.320 52.480 Q267.120 52.480 264.000 54.100 Q260.880 55.720 258.840 58.360 Q256.800 61.000 255.780 64.300 Q254.760 67.600 254.760 70.960 Z M357.240 65.440 Q357.240 62.680 356.460 60.160 Q355.680 57.640 354.000 55.720 Q352.320 53.800 349.740 52.660 Q347.160 51.520 343.680 51.520 Q337.200 51.520 332.700 55.420 Q328.200 59.320 327.720 65.440 Z M371.640 71.920 Q371.640 72.880 371.640 73.840 Q371.640 74.800 371.520 75.760 L327.720 75.760 Q327.960 78.880 329.340 81.460 Q330.720 84.040 333.000 85.900 Q335.280 87.760 338.160 88.840 Q341.040 89.920 344.160 89.920 Q349.560 89.920 353.280 87.940 Q357.000 85.960 359.400 82.480 L369.000 90.160 Q360.480 101.680 344.280 101.680 Q337.560 101.680 331.920 99.580 Q326.280 97.480 322.140 93.640 Q318.000 89.800 315.660 84.220 Q313.320 78.640 313.320 71.560 Q313.320 64.600 315.660 58.900 Q318.000 53.200 322.080 49.180 Q326.160 45.160 331.740 42.940 Q337.320 40.720 343.800 40.720 Q349.800 40.720 354.900 42.700 Q360.000 44.680 363.720 48.580 Q367.440 52.480 369.540 58.300 Q371.640 64.120 371.640 71.920 Z" fill="#F5F7F1"/></g></svg>